<?xml version="1.0" encoding="UTF-8" standalone="no"?>
<svg
   xmlns:dc="http://purl.org/dc/elements/1.1/"
   xmlns:cc="http://creativecommons.org/ns#"
   xmlns:rdf="http://www.w3.org/1999/02/22-rdf-syntax-ns#"
   xmlns:svg="http://www.w3.org/2000/svg"
   xmlns="http://www.w3.org/2000/svg"
   xmlns:sodipodi="http://sodipodi.sourceforge.net/DTD/sodipodi-0.dtd"
   xmlns:inkscape="http://www.inkscape.org/namespaces/inkscape"
   viewBox="0 0 840.00004 639.99992"
   height="640"
   width="840"
   xml:space="preserve"
   version="1.1"
   id="svg2"
   inkscape:version="0.91 r13725"
   sodipodi:docname="CN_Group_prima.svg"><sodipodi:namedview
     pagecolor="#ffffff"
     bordercolor="#666666"
     borderopacity="1"
     objecttolerance="10"
     gridtolerance="10"
     guidetolerance="10"
     inkscape:pageopacity="0"
     inkscape:pageshadow="2"
     inkscape:window-width="1369"
     inkscape:window-height="856"
     id="namedview3402"
     showgrid="false"
     units="px"
     fit-margin-top="0"
     fit-margin-left="0"
     fit-margin-right="0"
     fit-margin-bottom="0"
     inkscape:zoom="0.87753166"
     inkscape:cx="331.34071"
     inkscape:cy="353.02475"
     inkscape:window-x="0"
     inkscape:window-y="0"
     inkscape:window-maximized="0"
     inkscape:current-layer="svg2" /><metadata
     id="metadata8"><rdf:RDF><cc:Work
         rdf:about=""><dc:format>image/svg+xml</dc:format><dc:type
           rdf:resource="http://purl.org/dc/dcmitype/StillImage" /><dc:title></dc:title></cc:Work></rdf:RDF></metadata><defs
     id="defs6"><clipPath
       id="clipPath16"
       clipPathUnits="userSpaceOnUse"><path
         id="path18"
         d="m 0,841.89 595.276,0 L 595.276,0 0,0 0,841.89 Z"
         inkscape:connector-curvature="0" /></clipPath></defs><g
     transform="matrix(1.6418047,0,0,-1.8253408,-53.461052,1091.7501)"
     id="g10"><g
       id="g12"><g
         clip-path="url(#clipPath16)"
         id="g14"><path
           id="path20"
           style="fill:#e5324c;fill-opacity:0.3;fill-rule:nonzero;stroke:none"
           d="m 324.96,422.067 -26.581,0 0,-12.838 8.564,0 c -0.99,-4.112 -6.007,-6.825 -9.959,-6.825 -9.795,0 -12.425,7.648 -12.425,16.042 0,10.448 3.622,17.364 11.273,17.364 5.021,0 8.556,-2.635 9.956,-7.491 l 18.433,0 c -2.388,14.564 -13.825,21.968 -28.059,21.968 -19.172,0 -31.023,-12.999 -31.023,-31.923 0,-20.651 13.577,-30.445 28.719,-30.445 9.299,0 14.643,3.456 17.855,7.238 l 0.739,-5.839 12.508,0 0,32.749 z m 9.79,-32.584 17.115,0 0,14.891 c 0,9.299 3.539,12.59 10.534,12.59 1.153,0 2.383,-0.33 3.536,-0.495 l 0,17.115 c -0.736,0.083 -1.479,0.248 -2.218,0.248 -6.669,0 -10.864,-3.209 -13.251,-9.956 l -0.161,0 0,8.726 -15.555,0 0,-43.119 z m 58.354,32.829 c 4.439,0.247 7.239,-4.526 7.239,-10.857 0,-8.15 -2.8,-11.685 -7.404,-11.685 -4.361,0 -7.404,3.535 -7.404,11.685 0,4.849 1.726,10.857 7.569,10.857 m -24.685,-11.765 c 0,-14.73 10.699,-22.298 24.52,-22.298 13.821,0 24.519,7.404 24.519,23.206 0,13.408 -9.382,22.377 -24.602,22.377 -14.564,0 -24.437,-8.312 -24.437,-23.285 m 102.852,22.055 -17.116,0 0,-20.738 c 0,-6.669 -1.566,-10.368 -6.499,-10.368 -4.118,0 -6.17,1.891 -6.17,7.817 l 0,23.289 -17.119,0 0,-26.254 c 0,-12.339 6.095,-18.099 15.468,-18.099 7.077,0 11.276,1.644 15.555,7.568 l 0,-6.334 15.881,0 0,43.119 z m 7.648,0 0,-57.768 17.118,0 0,18.928 c 2.879,-3.621 6.339,-5.513 11.026,-5.513 9.625,0 20.155,6.17 20.155,23.12 0,11.851 -6.251,22.463 -19.251,22.463 -4.938,0 -11.112,-2.387 -13.493,-7.651 l -0.166,0 0,6.421 -15.389,0 z m 23.779,-31.271 c -4.438,0 -6.99,4.116 -6.99,10.124 0,5.757 2.796,9.705 6.911,9.705 4.524,0 7.487,-3.209 7.487,-10.035 0,-5.93 -2.881,-9.794 -7.408,-9.794"
           inkscape:connector-curvature="0" /><path
           id="path22"
           style="fill:#e5324c;fill-opacity:0.3;fill-rule:nonzero;stroke:none"
           d="m 173.571,450.939 0,-29.897 -26.494,29.897 -20.705,0 0,-60.559 20.705,0 0,29.395 26.049,-29.395 0.445,0.445 0,-0.445 20.705,0 0,60.559 -20.705,0 z"
           inkscape:connector-curvature="0" /><path
           id="path24"
           style="fill:#e5324c;fill-opacity:0.3;fill-rule:nonzero;stroke:none"
           d="m 87.854,411.086 c -5.286,0 -9.574,4.286 -9.574,9.57 0,5.289 4.288,9.574 9.574,9.574 l 32.73,0 -18.351,20.709 -14.379,0 c -16.722,0 -30.279,-13.556 -30.279,-30.279 0,-16.722 13.557,-30.28 30.279,-30.28 l 32.73,0 -18.348,20.706 -14.382,0 z"
           inkscape:connector-curvature="0" /><path
           id="path26"
           style="fill:#b3b4b6;fill-opacity:0.3;fill-rule:nonzero;stroke:none"
           d="m 234.983,429.027 -0.95,0.334 c -0.167,-0.054 -0.444,-0.22 -0.389,-0.499 0.112,-0.448 0.726,-0.727 1.172,-0.614 l 0.167,0.779 z m -25.931,14.611 c -0.167,-0.224 -0.334,-0.723 0.057,-0.893 0.223,0 0.447,-0.055 0.614,0.115 0.334,0.389 -0.334,1.057 -0.671,0.778 m 5.578,0.224 c -0.502,-0.224 -0.671,-0.782 -0.559,-1.281 0.168,-0.504 0.671,-0.783 1.173,-0.838 0.501,0.279 0.501,1.038 0.278,1.506 -0.167,0.389 -0.446,0.668 -0.892,0.613 m 2.231,9.366 c -0.337,-0.668 0.055,-1.505 0.611,-1.895 0.559,-0.224 1.284,-0.169 1.731,0.279 0.334,0.389 0.558,1.117 0.278,1.671 -0.39,1.172 -2.343,1.231 -2.62,-0.055 m 2.9,29.164 c -0.28,-0.276 -0.615,-0.5 -0.558,-0.834 -0.112,-0.724 0.668,-0.449 1.004,-0.783 0.389,0.114 0.556,0.503 0.556,0.893 -0.112,0.448 -0.613,0.668 -1.002,0.724 m -35.633,7.25 c 0,-0.165 0,-0.334 -0.167,-0.334 -0.169,-0.055 -0.224,0.055 -0.279,0.113 -0.113,0.276 0.389,0.614 0.446,0.221 m 5.966,6.358 c -1.45,-1.172 -3.236,-2.175 -3.345,-4.07 0.725,-0.055 1.338,0.279 1.95,0.559 0,1.502 1.73,2.06 2.176,3.231 -0.222,0.17 -0.501,0.17 -0.781,0.28 m 2.788,2.788 c -0.446,-0.445 -0.725,-1.059 -0.501,-1.731 l 0.334,0 c 0.446,0.17 0.947,0.672 0.947,1.227 -0.222,0.225 -0.391,0.559 -0.78,0.504 m 54.312,10.092 c -0.557,-0.278 -0.836,-0.837 -0.669,-1.45 0.167,-0.445 0.614,-0.723 1.117,-0.614 0.444,0.225 0.724,0.783 0.614,1.341 -0.112,0.499 -0.614,0.779 -1.062,0.723 m -26.652,14.667 c -1.005,-0.613 -1.673,-1.506 -2.9,-1.506 -1.452,-0.444 -2.246,-1.749 -3.012,-2.623 -1.84,-1.781 -3.576,-1.734 -4.916,-4.077 -0.359,-0.528 -2.401,-2.068 -2.822,-2.508 -0.551,-0.579 -0.034,-1.255 -1.074,-1.609 -1.895,0.055 -2.955,-1.785 -4.74,-2.009 -0.78,-0.22 -0.947,-1.003 -0.947,-1.726 -0.168,-0.893 -1.115,-0.948 -1.783,-1.062 -0.671,-0.169 -1.172,-0.892 -1.227,-1.561 0.11,-0.613 0.444,-1.172 1.002,-1.506 0.838,-0.837 1.619,0.224 2.12,0.838 0.391,0.389 0.112,1.057 0.501,1.506 1.396,0.444 3.737,-0.114 3.96,2.06 0.112,0.727 0.892,1.007 1.506,1.116 1.24,0.225 2.426,2.175 4.683,2.957 0.949,0.334 0.218,1.204 1.437,1.868 1.999,0.626 0.696,1.113 3.625,3.067 0,0 1.462,0.869 2.716,1.29 2.232,0.731 2.651,2.194 3.834,2.823 1.117,0.417 1.995,0.766 1.715,1.714 -0.779,1.117 -2.342,2.186 -3.678,0.948 m 6.243,2.843 c -0.446,-0.335 -0.948,-0.445 -1.227,-0.949 -0.167,-0.443 -0.277,-1.17 0.225,-1.505 0.835,-0.165 1.895,0.225 2.565,0.837 0.278,0.28 0.055,0.668 -0.056,1.003 -0.447,0.393 -0.948,0.558 -1.507,0.614 m 2.845,0.224 c 0.277,-0.224 0.613,-0.445 0.948,-0.224 0.279,0.224 0.334,0.613 0.222,0.892 -0.557,0.28 -1.115,-0.169 -1.17,-0.668 m 17.342,6.578 c -0.614,-0.444 -0.781,-1.227 -0.669,-2.005 0.222,-0.893 1.156,-1.381 1.953,-1.062 0.501,0.224 0.948,0.448 1.17,1.171 0.3,0.846 -0.677,2.969 -2.454,1.896 m -3.486,8.222 c 1.024,0.153 2.405,0.074 3.565,-0.248 0.784,-0.22 1.035,-0.732 1.873,-1.003 1.528,-0.539 2.279,-1.541 3.104,-2.481 0.358,-0.409 0.834,-0.315 1.19,-1.144 0.072,-0.216 0.147,-0.437 0.232,-0.657 0.224,-0.586 0.514,-1.148 0.973,-1.509 0.308,-0.245 0.739,0.243 1.193,-0.398 1.227,-1.003 0.444,-2.842 0.669,-4.239 l 0.054,-6.916 c 0.113,-1.112 1.731,-1.726 1.06,-3.008 -0.882,-1.207 -1.268,-2.881 -1.227,-4.262 0.049,-1.569 0.561,-2.835 -0.112,-4.046 -0.78,-0.837 -2.228,-0.503 -2.73,-1.675 -0.211,-0.802 -0.05,-1.82 -0.279,-2.634 -0.14,-0.492 -0.677,-0.46 -1.005,-1.156 -0.222,-0.668 -0.222,-1.561 0,-2.233 0.189,-0.732 1.059,-0.779 0.613,-1.448 -0.912,-1.132 -0.807,-1.721 -0.948,-2.622 -0.07,-0.845 -0.736,-0.952 -0.996,-1.459 -0.157,-0.31 -0.266,-0.637 -0.285,-0.994 -0.146,-0.767 -1.348,-1.117 -2.029,-2.014 -0.33,-0.436 -0.37,-1.321 -0.427,-1.832 -0.222,-1.007 1.23,-1.451 0.559,-2.454 -0.723,-1.045 -1.318,-2.197 -1.674,-3.345 -0.167,-0.728 1.06,-1.731 -0.222,-2.065 -2.732,-0.334 -1.226,-3.401 -1.784,-5.131 -0.46,-1.136 -1.052,-2.878 -1.617,-3.177 -0.9,-0.598 -0.729,-0.999 -1.317,-1.549 -0.251,-0.232 -1.036,-0.837 -1.429,-1.046 -0.558,-0.558 -0.432,-0.92 -0.265,-1.478 0.194,-0.507 -0.111,-3.791 -2.008,-4.625 -0.78,-0.282 -1.617,-0.503 -2.007,-1.285 l -0.224,-2.733 c -0.065,-0.881 -1.301,-1.985 -2.054,-3.279 -0.368,-0.629 -0.03,-1.447 -0.567,-2.017 -1.226,-1.731 0.668,-3.292 0.279,-4.962 -0.234,-0.74 0.05,-1.534 0.166,-2.309 0.051,-0.329 -0.291,-0.593 0.002,-0.982 0.383,-0.673 0.198,-0.936 0.613,-1.526 0.662,-0.908 0.977,-0.177 1.506,-1.317 0.256,-1.061 0.464,-2.265 0.466,-3.425 0.001,-0.609 -0.334,-0.833 -0.187,-1.761 0,-1.785 0.558,-3.905 0.055,-5.69 -0.236,-1.435 2.692,-2.166 1.339,-3.511 -0.614,-0.782 -1.618,-1.341 -1.227,-2.508 0.558,-1.062 -0.057,-2.288 -0.057,-3.461 -0.334,-0.892 -0.326,-1.47 -1.449,-2.229 -1.394,-1.116 -2.224,-2.238 -4.14,-3.004 -1.339,-0.779 0.014,-2.461 -1.827,-2.796 -0.99,-0.318 -1.808,-0.089 -2.878,-0.168 -0.798,-0.056 -1.906,-0.54 -2.418,-0.165 -0.67,0.668 -1.136,1.038 -2.343,1.057 -0.334,0 -0.781,-0.055 -0.836,0.338 -0.328,0.582 -0.39,1.561 0.559,1.616 1.227,-0.334 2.424,0.641 2.787,1.282 0.445,0.724 1.003,1.561 1.058,2.508 0.177,0.748 0.657,0.936 1.61,1.137 0.411,0.086 1.185,0.177 1.569,0.479 0.67,0.504 0.113,1.452 0.503,2.009 0.096,0.732 0.195,1.31 0.787,2.356 0.122,0.436 0.595,1.324 0.542,2.162 -0.021,0.315 -0.114,0.618 -0.326,0.893 -0.425,0.432 -0.152,1.074 -0.11,1.443 0.057,0.531 0.389,0.751 0.389,1.345 -0.556,1.002 0.668,1.895 0,2.897 -0.055,0.728 -0.342,0.972 -0.284,1.75 0.054,0.613 -0.333,0.905 -0.457,1.148 -0.201,0.397 -0.175,0.323 -0.381,0.735 -0.732,0.626 -0.439,1.443 -0.383,2.002 -0.056,1.227 0.501,2.454 -0.447,3.346 -0.633,0.542 -1.227,-0.727 -1.339,-1.396 -0.611,-0.334 -1.394,-0.169 -1.728,-0.893 -0.041,-1.246 -0.32,-2.118 -0.78,-3.121 -0.167,-1.003 0.111,-2.454 -1.115,-2.733 -1.117,0.056 -2.12,0.425 -3.012,-0.668 -0.433,-1.034 0.643,-2.081 0.09,-3.055 -0.544,-0.96 -1.083,-2.214 -1.881,-2.753 -0.675,-0.452 -1.665,-0.271 -1.665,-0.271 -0.767,-0.197 -0.387,1.053 -0.914,2.292 -0.15,0.35 -0.871,0.665 -0.871,1.553 -0.067,0.837 -0.256,1.714 -0.706,2.415 -0.303,0.467 -0.722,0.857 -1.301,1.1 -0.502,0.224 -1.117,0.17 -1.562,-0.165 -0.532,-0.322 -0.937,-0.896 -1.067,-1.45 -0.143,-0.614 -0.006,-1.212 -0.551,-1.621 -0.78,-0.612 -1.993,-0.334 -2.396,-1.446 -0.391,-0.614 -0.643,-1.188 -1.229,-1.617 -0.632,-0.267 -0.983,-0.058 -0.89,0.669 -0.032,0.849 0.771,0.955 1.128,1.608 0.453,0.696 -0.348,1.183 0.376,2.017 1.244,0.719 0.959,2.162 1.383,3.287 0.167,0.44 0.89,0.307 0.96,1.117 0,0.586 0.151,1.07 0.382,1.51 0.49,0.94 1.185,0.991 1.793,2.784 0.473,1.273 2.321,1.694 2.229,3.231 -0.028,0.421 0.092,0.685 0.291,0.87 0.593,0.546 1.913,0.358 2.163,1.364 0.112,1.113 1.171,1.616 1.562,2.619 0.389,1.34 -0.334,3.122 0.893,4.128 0.781,0.948 2.341,2.06 1.895,3.625 0.056,0.834 0.816,1.157 0.78,2.285 -0.017,0.727 -0.078,1.47 -0.139,2.214 -0.124,1.529 -0.035,3.07 -0.028,4.533 -0.223,0.389 0,1.057 -0.613,1.117 -0.78,-0.114 -1.618,0.055 -2.007,0.778 -0.446,1.172 0.417,2.568 -0.057,3.736 -0.502,0.448 -0.055,1.006 0.057,1.505 0.112,1.451 -0.726,2.289 -0.334,3.794 -0.17,0.838 0.298,1.546 0.112,2.509 -0.112,1.023 0.273,1.876 0.257,2.906 -0.018,1.046 -0.434,2.272 -0.202,3.338 0.334,0.837 2.117,0.673 1.394,2.064 0.111,0.614 1.281,0.417 1.226,1.562 -0.558,1.784 1.589,2.516 2.399,3.68 0.836,1.84 2.057,2.803 4.173,2.634 1.221,-0.138 2.183,0.267 2.572,-0.405 0.217,-0.432 0.615,-1.67 0,-2.508 -0.41,-0.92 -0.086,-0.807 -0.131,-2.174 -0.279,-1.011 -0.754,-0.921 -1.08,-1.114 -0.35,-0.207 -0.79,-0.605 -0.977,-1.151 l -0.375,-0.968 c -0.357,-1.16 -1.151,-1.325 -1.18,-2.237 -0.038,-1.152 0.171,-2.403 -0.606,-3.118 -0.613,-1.282 1.172,-1.451 0.671,-2.564 -0.197,-1.096 0.296,-2.249 0.334,-3.381 0.017,-0.476 -0.621,-0.873 -0.279,-1.416 0.501,-0.334 1.156,-0.29 1.17,-1.171 0,-0.334 -0.056,-0.893 0.057,-1.282 0.906,-1.046 1.045,-0.035 1.171,0.782 0.222,1.058 0.613,2.006 1.225,2.898 1.088,1.341 2.239,2.21 2.121,5.241 -0.114,1.954 2.118,2.289 2.621,3.96 0.737,2.559 2.898,2.957 2.842,5.017 0.056,1.376 0.928,1.931 1.227,3.516 0.057,1.226 0.636,2.063 1.025,3.121 0.594,1.361 0.257,2.733 0.871,3.795 0.977,1.227 2.092,0.039 2.398,1.726 0,0 -0.063,2.74 0.879,4.411 2.648,2.128 0.435,4.482 0.403,5.572 -0.222,0.892 -1.504,0.613 -1.227,1.726 0,1.565 0.616,3.161 -0.556,4.353 -0.67,0.443 -1.479,0.931 -2.453,0.165 -0.592,-1.046 -1.06,-1.727 -2.232,-1.561 -0.907,0.342 -1.079,1.422 -1.84,1.675 -2.175,0.499 -3.213,-1.857 -4.628,-2.399 -0.948,-0.503 -2.454,-0.503 -2.845,-1.62 l -0.131,-1.077 c -0.183,-0.582 -1.099,-1.164 -2.057,-1.467 -0.786,-0.244 -1.938,-0.208 -2.719,-0.869 -0.718,-0.48 -1.266,-0.869 -2.043,-1.246 -0.308,-0.15 -0.643,-0.248 -1.022,-0.248 -1.061,-0.554 -0.057,-2.119 -1.395,-2.395 -0.978,-0.177 -1.707,-0.573 -2.696,-1.423 -0.651,-0.719 -1.138,-0.511 -1.765,-1.207 -0.447,-1.785 -2.544,-2.292 -3.695,-2.682 -1.393,-0.585 -1.604,-1.022 -2.537,-1.785 -0.836,-0.684 -1.666,-1.391 -2.745,-1.604 -2.031,-1.069 -3.2,-2.972 -4.626,-4.301 -0.727,-0.681 -1.836,-0.85 -2.534,-1.408 -0.613,-0.335 -2.098,-2.005 -2.823,-1.671 -0.167,0.165 -0.334,0.334 -0.28,0.558 0.106,0.976 2.616,1.565 2.232,2.808 -0.112,0.503 -0.558,0.948 -1.002,1.226 -0.95,0.633 -2.728,-1.667 -3.85,-2.842 -1.838,-2.009 -3.303,-4.294 -5.688,-5.91 -1.839,-1.396 -2.774,-3.335 -5.017,-4.797 0,0 -5.312,-3.539 -6.539,-5.925 -1.221,-2.371 -6.309,-6.343 -6.309,-6.343 -1.149,-1.395 -0.104,-2.822 -1.708,-3.68 -0.78,-0.11 -1.358,-0.051 -1.95,-0.892 -0.558,-0.669 -0.523,-1.939 -1.638,-2.049 0,0 -1.569,0.102 -2.441,-1.152 -0.696,-1.081 -1.986,-0.452 -3.1,-1.534 -0.781,-0.723 -1.687,-0.396 -1.687,-1.903 -0.058,-1.45 0.446,-3.4 -1.172,-3.959 -0.892,-0.224 -2.007,-0.165 -2.676,0.504 -1.06,1.395 -1.451,3.625 -0.67,5.354 0.494,0.492 0.556,1.117 1.046,1.679 0.558,0.661 1.045,0.347 1.352,1.109 -0.159,1.703 1.599,2.454 2.448,3.665 0.383,0.487 0.285,1.215 0.556,1.883 0.781,0.948 2.459,0.307 2.629,1.978 0.13,1.655 1.861,2.666 2.532,4.12 0.187,0.405 -0.038,0.697 0.256,1.346 0.194,0.432 0.841,0.342 1.065,0.746 0.452,0.496 0.58,1.007 1.166,1.483 0.916,0.755 1.659,1.911 2.494,2.803 0.714,0.759 1.77,1.207 2.509,1.849 0.663,0.522 0.58,0.982 1.019,1.372 0.892,0.668 2.508,0.389 2.842,1.784 -0.122,1.554 1.164,2.207 2.1,3.15 0.342,0.342 0.637,0.723 0.8,1.199 0.314,0.857 1.351,1.153 2.086,1.77 1.148,0.963 2.289,2.005 2.933,3.192 0.419,0.633 1.093,0.708 1.542,1.184 0.875,0.936 1.59,2.076 2.697,2.776 1.84,1.226 2.731,4.183 5.184,4.183 1.068,-0.051 0.475,1.935 1.563,2.399 0.836,0.11 1.561,0.445 1.952,1.282 -0.057,1.616 1.98,1.462 2.733,2.174 1.783,1.451 2.452,3.511 4.795,3.845 0.759,0.111 1.711,1.019 2.615,1.986 0.904,0.972 0.584,1.475 1.622,1.75 1.62,0.145 2.492,1.077 3.523,1.785 0.46,0.318 0.945,0.24 1.551,0.728 0.544,0.416 0.782,0.892 1.563,0.723 0.546,-0.012 0.792,0.405 0.977,0.912 0.2,0.551 0.096,1.361 0.696,1.541 0.988,0.295 1.964,0.48 2.85,0.865 0.887,0.385 1.687,0.964 2.223,1.479 l 2.455,2.229 c 0.515,0.649 1.431,0.024 1.909,0.126 1.19,0.256 1.844,0.854 2.998,1.211 2.007,-0.055 3.234,1.84 5.129,2.009 0.796,0.126 0.729,0.708 1.13,0.948 0.303,0.181 0.637,0.24 1.046,0 0.501,-0.444 1.225,-0.838 1.895,-0.504 1.673,1.18 4.07,-0.165 5.632,1.227 0,0 0.63,0.732 1.477,0.862"
           inkscape:connector-curvature="0" /><path
           id="path28"
           style="fill:#b3b4b6;fill-opacity:0.3;fill-rule:nonzero;stroke:none"
           d="m 131.6,347.113 c 0.054,-0.334 0.389,-0.449 0.668,-0.503 0.391,0.115 0.334,0.503 0.391,0.837 0.031,0.281 -0.641,0.642 -0.942,0.468 -0.419,-0.177 -0.117,-0.802 -0.117,-0.802 m 6.171,7.958 c -0.474,-0.054 -0.819,-0.326 -0.768,-0.601 0.054,-0.275 0.331,-0.555 0.62,-0.626 0.287,-0.066 0.631,0.201 0.765,0.602 0.133,0.398 -0.144,0.676 -0.617,0.625 m -38.125,19.645 c 0.225,-0.724 -0.501,-1.113 -0.501,-1.785 0.09,-1.003 0.857,-1.42 -0.112,-3.347 -0.252,-1.14 0.096,-1.352 -0.531,-2.43 -0.519,-0.927 -1.256,-1.348 -1.867,-2.198 -0.836,-1.085 -0.419,-2.645 -0.932,-3.825 -0.408,-0.567 -1.103,-1.192 -1.288,-2.234 -0.268,-0.735 -0.763,-0.944 -1.001,-2.13 0,0 0.077,-1.125 -0.417,-2.301 -0.414,-0.987 -1.344,-1.627 -1.572,-1.998 -0.852,-1.371 -2.053,-3.091 -2.228,-3.857 -0.173,-1.706 -0.802,-1.742 -1.394,-3.554 -0.243,-2.021 0.468,-2.686 -0.649,-3.911 -0.89,-0.834 -1.894,-1.896 -2.396,-3.123 -0.37,-1.75 -0.112,-4.518 0.168,-6.469 0.021,-0.891 -0.563,-1.357 -0.538,-2.076 0.024,-0.648 0.264,-1.113 0.349,-1.741 0.058,-0.428 -0.081,-1.046 0.076,-1.424 0.336,-0.502 0.336,-1.171 0.948,-1.451 0.843,-0.091 1.643,-0.161 2.426,-0.471 0.668,-0.268 1.325,-0.795 1.979,-0.642 0.948,0.725 1.896,1.059 3.013,1.283 1.584,0.451 2.779,3.019 4.735,3.987 0.531,0.263 1.042,-0.064 1.79,0.361 0.483,0.425 1.016,0.766 1.59,1 0.483,0.195 1.042,-0.17 1.531,0.337 0.748,0.747 1.664,1.593 2.684,2.174 0.578,0.334 1.219,0.143 1.665,0.783 0.668,1.173 1.645,2.563 3.215,3.122 0.851,0.22 1.566,1.325 2.618,2.049 0.452,0.314 0.761,0.008 1.584,0.63 1.003,1.559 2.594,2.341 4.719,2.896 1.742,0.421 1.463,1.777 2.81,2.678 0.835,0.727 1.755,0.602 3.009,1.395 1.687,0.842 2.298,2.316 3.765,3.319 0.572,0.389 1.186,0.661 2.371,1.086 0.975,0.236 1.235,0.857 1.602,1.002 0.989,0.402 1.604,-0.051 2.133,1.007 0.28,0.499 0.724,1.329 1.449,0.888 1.673,-2.508 -2.396,-3.232 -2.453,-5.516 l -0.258,-1.99 c -0.411,-1.183 -2.029,-1.191 -2.418,-2.084 -0.055,-0.668 -0.301,-1.434 -1.276,-1.607 -0.947,-0.394 -1.735,-1.181 -2.07,-2.072 -0.439,-0.751 -1.24,-0.334 -1.565,-0.949 -0.633,-0.507 -1.129,-1.148 -1.223,-2.005 -0.72,-1.108 -1.764,-0.991 -2.492,-1.706 -0.905,-0.884 -2.478,-1.703 -2.639,-2.812 -0.335,-1.117 0.265,-3.669 -1.336,-3.181 -0.726,0.339 -1.641,1.396 -2.615,0.559 -1.061,-1.057 -1.603,-1.57 -2.016,-3.233 -0.122,-0.954 -1.805,-2.159 -3.344,-3.496 -0.723,-0.632 -1.415,-1.293 -1.897,-1.968 -0.759,-0.85 -1.588,-0.41 -2.266,-0.87 -0.825,-0.565 -1.493,-1.36 -1.858,-2.307 -0.028,-0.28 -0.234,-1.573 -0.956,-1.821 -0.875,-0.303 -2.337,0.436 -2.998,0.102 -1.547,-0.774 -2.735,-2.592 -3.8,-2.465 0,0 -3.095,0.987 -5.609,0.13 -2.419,-0.822 -3.834,-3.067 -5.543,-3.196 -2.439,0.062 -4.906,-0.783 -6.467,1.226 -0.816,0.786 -1.73,0.487 -2.556,1.104 -0.808,0.609 -2.058,1.078 -2.019,2.127 -0.167,3.013 -4.069,3.849 -3.177,7.362 0.389,2.008 -0.669,4.462 0.668,6.024 0.948,1.17 0.307,2.224 1.953,3.789 0.452,0.346 0.417,1.825 0.271,3.696 -0.075,0.982 -0.975,1.707 -0.214,3.11 0.78,1.282 2.117,2.175 2.787,3.456 0.614,2.623 -0.67,6.582 2.509,7.641 1.054,0.291 0.008,0.781 0.501,2.174 0.179,0.547 1.066,1.313 1.563,2.301 0.358,0.714 0.248,1.599 0.781,2.327 0.167,1.003 -0.169,2.398 0.947,2.842 1.663,0 1.437,0.264 2.21,2.29 0.12,0.707 1.083,1.434 1.638,2.401 0.402,0.708 1.01,1.503 0.892,2.171 -0.169,1.554 1.111,2.513 2.149,3.574 1.384,1.191 0.549,1.683 1.252,2.391 1.618,0.782 1.785,-1.448 3.234,-0.948 0.838,0.783 1.618,1.396 2.12,2.399 0.167,1.002 -0.167,2.893 0.446,2.956 1.84,0.11 1.512,-1.84 2.341,-2.956"
           inkscape:connector-curvature="0" /></g></g></g></svg>